<?xml version="1.0" encoding="UTF-8" standalone="no"?>
<svg
   width="369.45966"
   height="152.13"
   viewBox="0 0 369.45966 152.13"
   version="1.1"
   xml:space="preserve"
   style="clip-rule:evenodd;fill-rule:evenodd;stroke-linejoin:round;stroke-miterlimit:2"
   id="svg29"
   sodipodi:docname="logo.svg"
   inkscape:version="1.4.3 (0d15f750, 2025-12-25)"
   xmlns:inkscape="http://www.inkscape.org/namespaces/inkscape"
   xmlns:sodipodi="http://sodipodi.sourceforge.net/DTD/sodipodi-0.dtd"
   xmlns="http://www.w3.org/2000/svg"
   xmlns:svg="http://www.w3.org/2000/svg"><defs
   id="defs29" /><sodipodi:namedview
   id="namedview29"
   pagecolor="#ffffff"
   bordercolor="#666666"
   borderopacity="1.0"
   inkscape:showpageshadow="2"
   inkscape:pageopacity="0.0"
   inkscape:pagecheckerboard="0"
   inkscape:deskcolor="#d1d1d1"
   inkscape:zoom="0.7816691"
   inkscape:cx="245.62823"
   inkscape:cy="29.424215"
   inkscape:window-width="1680"
   inkscape:window-height="933"
   inkscape:window-x="0"
   inkscape:window-y="25"
   inkscape:window-maximized="1"
   inkscape:current-layer="svg29" />
    <g
   transform="matrix(0.43202782,0,0,0.43202782,-8.277221,-79.286234)"
   id="g29">
        <g
   transform="translate(317.258,-17.9688)"
   id="g1">
            <path
   d="m 282.798,381.639 c -1.904,19.806 0.122,30.544 5.906,49.247 8.464,-0.725 14.83,-1.898 23.1,-3.478 -18.855,14.215 -37.739,22.653 -60.19,29.037 -11.791,-25.525 -16.011,-53.897 -12.159,-81.749 3.324,-25.346 12.923,-48.005 28.274,-68.376 2.969,-3.94 8.143,-10.539 12.056,-13.542 0.729,-0.98 1.311,-1.614 2.166,-2.497 24.417,-25.222 61.834,-40.725 96.742,-41.466 28.297,-0.321 48.69,3.745 74.062,17.411 l -11.143,19.637 c -3.428,6.064 -6.887,12.369 -10.514,18.295 -25.065,-12.858 -50.634,-16.311 -77.87,-7.552 -25.817,8.196 -47.288,26.37 -59.637,50.48 -5.495,10.837 -9.143,22.515 -10.793,34.553 z"
   style="fill:#006668"
   id="path1" />
        </g>
        <g
   transform="translate(317.258,-17.9688)"
   id="g2">
            <path
   d="m 483.441,501.661 c -8.051,11.415 -39.04,28.656 -52.864,33.132 -41,13.277 -75.664,10.352 -113.784,-8.207 27.192,-13.698 42.33,-29.952 59.392,-54.699 -1.511,8.877 -3.36,17.694 -5.542,26.431 38.889,4.108 74.239,-11.992 96.069,-44.502 l 1.211,-2.075 c 2.355,-0.448 33.059,20.057 37.644,22.966 -6.167,9.27 -13.533,19.795 -22.126,26.954 z"
   style="fill:#006668"
   id="path2" />
        </g>
        <g
   transform="translate(317.258,-17.9688)"
   id="g3">
            <path
   d="m 349.765,409.291 c 2.352,-2.975 4.681,-5.969 6.985,-8.982 -14.325,11.123 -24.683,17.063 -42.2,21.652 -5.15,-5.012 -10.163,-11.206 -14.428,-16.987 28.785,-5.583 47.944,-21.276 67.066,-42.316 l 30.613,19.756 c 9.584,6.183 26.428,17.847 35.819,22.956 -5.839,22.02 -13.177,48.5 -30.245,64.837 l -11.419,-2.408 c 5.9,-7.53 8.362,-11.126 12.574,-19.674 -7.408,8.673 -9.924,11.197 -19.047,17.938 -4.54,-1.465 -8.658,-2.848 -13.119,-4.537 13.459,-11.984 20.038,-21.036 26.899,-37.752 -9.808,12.731 -21.758,26.727 -36.763,33.617 -16.46,-8.13 -28.14,-16.291 -41.489,-28.752 13.769,-6.332 17.7,-9.378 28.754,-19.348 z"
   style="fill:#006668"
   id="path3" />
        </g>
        <g
   transform="translate(317.258,-17.9688)"
   id="g4">
            <path
   d="m 421.409,331.23 c 1.933,0.282 2.072,0.176 4.001,-0.365 1.011,-3.392 17.807,-32.077 20.389,-36.641 l 30.543,-54.059 c 5.61,-9.877 11.293,-19.542 17.202,-29.609 8.578,-14.614 27.012,-10.584 30.47,5.109 1.809,8.21 -6.585,17.628 -11.566,24.205 -6.93,10.693 -15.854,22.114 -23.247,32.657 -16.035,22.866 -32.887,45.531 -48.767,68.47 4.558,8.532 -0.481,12.621 1.045,15.823 0.629,1.321 2.878,3.189 3.863,4.459 4.406,5.687 5.4,13.648 3.306,20.414 -2.113,6.829 -6.934,12.942 -11.078,18.688 -21.413,-13.278 -45.943,-29.129 -66.951,-43.241 l 3.764,-5.927 c 6.072,-14.874 21.619,-21.318 36.308,-14.299 4.097,-3.832 5.134,-5.361 10.718,-5.684 z"
   style="fill:#006668"
   id="path4" />
        </g>
        <g
   transform="translate(317.258,-17.9688)"
   id="g5">
            <path
   d="m 330.545,451.067 c 0.205,2.728 -7.357,12.842 -9.367,15.208 -21.364,25.155 -45.321,36.985 -77.466,40.403 l 11.716,-5.515 c 3.743,-1.765 3.721,-2.212 4.523,-6.233 0.7,-3.506 2.652,-6.806 0.375,-10.119 -4.862,-7.075 -0.175,-10.313 6.157,-12.389 0.44,-0.144 1.332,-4.79 3.604,-6.472 13.142,-9.731 15.28,3.428 24.695,8.131 6.886,-0.169 30.235,-18.29 35.763,-23.014 z"
   style="fill:#939598;fill-rule:nonzero"
   id="path5" />
        </g>
        <g
   transform="translate(317.258,-17.9688)"
   id="g6">
            <path
   d="m 328.72,383.451 c -4.822,-1.456 -24.934,-2.414 -31.461,-3.078 11.428,-3.959 22.997,-7.494 34.685,-10.6 -7.464,-12.876 -14.913,-23.39 -22.217,-35.564 12.467,6.606 23.744,14.89 35.786,21.907 0.336,-10.656 0.574,-24.044 1.697,-34.613 3.501,6.747 8.429,21.043 11.576,28.862 l 10.177,-16.55 c 0.149,23.3 -20.551,42.262 -39.476,53.017 -2.164,1.209 -6.061,2.742 -8.452,3.768 3.066,-2.578 4.892,-4.178 7.685,-7.149 z"
   style="fill:#faa619"
   id="path6" />
        </g>
        <g
   transform="translate(317.258,-17.9688)"
   id="g7">
            <path
   d="m 451.02,400.488 c 9.716,-2.05 19.932,-3.792 29.733,-5.591 -9.984,6.691 -20.466,12.993 -30.599,19.763 10.489,5.302 26.498,11.469 38.11,16.839 -14.643,0.13 -29.284,0.432 -43.92,0.906 2.807,11.013 5.799,21.978 8.975,32.89 -6.498,-6.838 -13.664,-15.691 -19.853,-23.01 -2.074,7.11 -4.068,14.243 -5.982,21.398 -0.578,-4.124 -1.518,-8.629 -2.287,-12.753 5.901,-14.447 10.218,-29.745 16.461,-43.934 1.081,-2.459 4.967,-7.019 6.782,-9.283 3.003,-4.405 4.364,-6.177 8.464,-9.896 -1.676,2.933 -5.251,8.746 -6.151,11.721 z"
   style="fill:#faa619"
   id="path7" />
        </g>
        <g
   transform="translate(317.258,-17.9688)"
   id="g8">
            <path
   d="m 485.391,291.274 c 5.417,3.16 15.674,17.912 19.592,23.602 -10.007,6.578 -19.939,13.269 -29.795,20.072 l -6.093,4.265 c -3.184,-4.055 -6.332,-8.138 -9.445,-12.248 8.669,-11.126 17.555,-24.083 25.741,-35.691 z"
   style="fill:#006668;fill-rule:nonzero"
   id="path8" />
        </g>
        <g
   transform="translate(317.258,-17.9688)"
   id="g9">
            <path
   d="m 241.911,519.767 c 9.434,-0.189 6.186,2.951 11.026,8.115 1.805,1.925 5.454,1.661 7.468,4.978 1.932,8.057 -5.953,8.507 -6.789,10.119 -2.946,5.683 -0.192,5.621 -7.513,9.124 -11.126,-0.619 -4.646,-6.865 -12.545,-8.517 -3.797,-0.794 -7.393,-4.487 -7.186,-8.052 1.785,-5.089 7.614,-5.608 9.191,-7.572 3.252,-4.05 0.126,-4.041 6.348,-8.195 z"
   style="fill:#939598;fill-rule:nonzero"
   id="path9" />
        </g>
        <g
   transform="translate(317.258,-17.9688)"
   id="g10">
            <path
   d="m 224.3,477.945 c 0.566,-3.855 1.163,-6.921 4.444,-9.475 1.964,-1.511 4.452,-2.172 6.908,-1.835 3.025,0.381 5.765,1.979 7.586,4.425 6.268,8.403 -1.863,12.915 -8.27,15.572 -6.718,4.058 -10.283,-2.516 -10.668,-8.687 z"
   style="fill:#939598"
   id="path10" />
        </g>
        <g
   transform="translate(317.258,-17.9688)"
   id="g11">
            <path
   d="m 287.864,508.695 c 1.897,0.359 4.391,0.827 5.624,2.286 3.816,4.513 10.934,10.95 8.873,17.201 -1.827,1.094 -4.595,0.848 -7.399,1.382 -6.73,-3.66 -4.504,-6.116 -14.071,-6.927 -1.718,-1.575 -1.44,-0.853 -1.643,-2.777 1.653,-1.968 3.517,-2.755 4.19,-5.143 0.956,-3.39 1.648,-4.033 4.426,-6.022 z"
   style="fill:#939598;fill-rule:nonzero"
   id="path11" />
        </g>
        <g
   transform="translate(317.258,-17.9688)"
   id="g12">
            <path
   d="m 342.091,463.332 c 0.148,2.111 -1.189,4.324 -2.187,6.2 -7.809,14.674 -22.478,25.677 -38.218,30.549 -0.02,-1.306 1.629,-2.366 2.805,-3.267 13.77,-10.547 25.568,-21.018 37.6,-33.482 z"
   style="fill:#939598;fill-rule:nonzero"
   id="path12" />
        </g>
        <g
   transform="translate(317.258,-17.9688)"
   id="g13">
            <path
   d="m 307.889,539.435 c 2.534,-0.49 5.136,0.423 6.808,2.389 1.673,1.966 2.158,4.68 1.268,7.104 -0.889,2.423 -3.014,4.18 -5.561,4.597 -3.861,0.632 -7.514,-1.954 -8.202,-5.805 -0.687,-3.852 1.846,-7.542 5.687,-8.285 z"
   style="fill:#939598;fill-rule:nonzero"
   id="path13" />
        </g>
        <g
   transform="translate(317.258,-17.9688)"
   id="g14">
            <path
   d="m 334.435,492.668 c 2.166,-1.071 4.792,-0.218 5.915,1.922 1.124,2.14 0.336,4.786 -1.775,5.962 -1.413,0.787 -3.141,0.746 -4.515,-0.107 -1.375,-0.853 -2.178,-2.383 -2.1,-3.999 0.078,-1.615 1.025,-3.061 2.475,-3.778 z"
   style="fill:#939598;fill-rule:nonzero"
   id="path14" />
        </g>
        <g
   transform="translate(317.258,-17.9688)"
   id="g15">
            <path
   d="m 221.837,500.945 c 1.479,-0.629 3.186,-0.371 4.414,0.667 1.227,1.038 1.765,2.679 1.39,4.242 -0.374,1.564 -1.597,2.783 -3.161,3.152 -2.152,0.508 -4.334,-0.716 -5.023,-2.817 -0.689,-2.101 0.345,-4.379 2.38,-5.244 z"
   style="fill:#939598;fill-rule:nonzero"
   id="path15" />
        </g>
        <g
   transform="translate(317.258,-17.9688)"
   id="g16">
            <path
   d="m 276.335,539.419 c 1.624,-1.03 3.775,-0.56 4.821,1.054 1.046,1.614 0.596,3.769 -1.007,4.831 -1.626,1.076 -3.817,0.619 -4.878,-1.017 -1.06,-1.636 -0.582,-3.823 1.064,-4.868 z"
   style="fill:#939598;fill-rule:nonzero"
   id="path16" />
        </g>
        <g
   transform="translate(317.258,-17.9688)"
   id="g17">
            <path
   d="m 308.217,443.932 c 1.675,-0.427 3.397,0.503 3.957,2.138 0.561,1.635 -0.228,3.426 -1.813,4.116 -1.145,0.499 -2.472,0.312 -3.435,-0.483 -0.962,-0.795 -1.397,-2.063 -1.125,-3.282 0.273,-1.218 1.207,-2.18 2.416,-2.489 z"
   style="fill:#939598;fill-rule:nonzero"
   id="path17" />
        </g>
        <g
   transform="translate(317.258,-17.9688)"
   id="g18">
            <path
   d="m 264.431,516.071 c 0.982,-0.523 2.175,-0.445 3.081,0.201 0.907,0.645 1.37,1.748 1.196,2.847 -0.173,1.099 -0.953,2.006 -2.013,2.342 -1.447,0.458 -3.004,-0.263 -3.592,-1.662 -0.588,-1.399 -0.012,-3.015 1.328,-3.728 z"
   style="fill:#939598;fill-rule:nonzero"
   id="path18" />
        </g>
        <g
   transform="translate(273.293,30.5508)"
   id="g20">
            <g
   transform="matrix(144,0,0,144,532.784,391.055)"
   id="g19">
                <path
   d="m 0.049,0.045 c 0,0.01 -0.002,0.037 0.034,0.038 H 0.095 C 0.27,0.082 0.304,0.027 0.304,-0.043 v -0.154 c 0,-0.01 -0.001,-0.021 0.004,-0.03 0.024,-0.047 0.135,-0.037 0.15,-0.044 C 0.475,-0.28 0.474,-0.296 0.474,-0.307 0.474,-0.363 0.425,-0.33 0.349,-0.355 0.306,-0.369 0.304,-0.39 0.304,-0.409 v -0.16 c 0,-0.075 -0.05,-0.125 -0.205,-0.125 H 0.087 c -0.014,0 -0.038,0.002 -0.038,0.034 v 0.006 c 0,0.02 0.007,0.035 0.036,0.035 h 0.013 c 0.123,0.002 0.122,0.025 0.122,0.053 v 0.157 c 0,0.053 0.023,0.083 0.06,0.103 v 0.001 C 0.253,-0.29 0.218,-0.262 0.22,-0.201 v 0.161 c 0,0.025 -0.004,0.045 -0.12,0.048 H 0.086 c -0.038,0 -0.037,0.027 -0.037,0.037 z"
   style="fill:#006668;fill-rule:nonzero"
   id="path19" />
            </g>
        </g>
        <g
   transform="translate(-521.977,30.5508)"
   id="g28">
            <g
   transform="matrix(144,0,0,144,532.784,391.055)"
   id="g21">
                <path
   d="m 0.058,-0.657 c 0,0.01 0.004,0.019 0.008,0.026 L 0.388,0.05 c 0.006,0.013 0.016,0.033 0.04,0.033 0.022,0 0.038,-0.019 0.038,-0.037 0,-0.011 -0.005,-0.02 -0.009,-0.028 L 0.135,-0.662 C 0.129,-0.675 0.119,-0.694 0.096,-0.694 c -0.018,0 -0.038,0.015 -0.038,0.037 z"
   style="fill:#006668;fill-rule:nonzero"
   id="path20" />
            </g>
            <g
   transform="matrix(144,0,0,144,608.384,391.055)"
   id="g22">
                <path
   d="m 0.047,-0.138 c 0,0.067 0.057,0.142 0.156,0.142 0.082,0 0.13,-0.034 0.149,-0.047 C 0.368,-0.007 0.408,0 0.465,0 h 0.023 c 0.01,0 0.036,-0.003 0.036,-0.037 0,-0.056 -0.049,-0.03 -0.093,-0.044 v -0.196 c 0,-0.139 -0.104,-0.173 -0.197,-0.173 -0.079,0 -0.151,0.008 -0.151,0.07 0,0.024 0.019,0.042 0.042,0.042 0.013,0 0.026,-0.006 0.034,-0.017 0.01,-0.014 0,-0.02 0.072,-0.02 0.119,0 0.116,0.07 0.116,0.1 -0.132,0 -0.3,0.028 -0.3,0.137 z m 0.084,0 c 0,-0.044 0.086,-0.071 0.216,-0.073 v 0.054 c 0,0.073 -0.088,0.086 -0.122,0.086 -0.051,0 -0.094,-0.029 -0.094,-0.067 z"
   style="fill:#006668;fill-rule:nonzero"
   id="path21" />
            </g>
            <g
   transform="matrix(144,0,0,144,683.984,391.055)"
   id="g23">
                <path
   d="M 0.05,-0.036 C 0.051,0 0.077,0 0.088,0 h 0.348 c 0.015,0 0.038,-0.002 0.038,-0.038 0,-0.037 -0.025,-0.037 -0.039,-0.037 H 0.304 V -0.57 c 0,-0.012 0.001,-0.041 -0.038,-0.041 H 0.089 c -0.021,0 -0.039,0.007 -0.039,0.036 0,0.038 0.022,0.04 0.038,0.04 H 0.22 v 0.46 H 0.09 c -0.018,0 -0.04,0.001 -0.04,0.039 z"
   style="fill:#006668;fill-rule:nonzero"
   id="path22" />
            </g>
            <g
   transform="matrix(144,0,0,144,759.584,391.055)"
   id="g24">
                <path
   d="m 0.065,-0.222 c 0,0.134 0.09,0.226 0.225,0.226 0.139,0 0.175,-0.101 0.175,-0.122 0,-0.028 -0.027,-0.029 -0.042,-0.029 H 0.419 c -0.016,0 -0.028,0.001 -0.038,0.027 -0.016,0.041 -0.046,0.049 -0.071,0.049 -0.088,0 -0.161,-0.052 -0.161,-0.152 0,-0.068 0.03,-0.152 0.151,-0.152 0.025,0 0.05,0 0.071,0.005 0.006,0.024 0.027,0.032 0.041,0.032 0.024,0 0.042,-0.018 0.042,-0.042 0,-0.068 -0.094,-0.07 -0.152,-0.07 H 0.295 c -0.152,0 -0.23,0.102 -0.23,0.228 z"
   style="fill:#006668;fill-rule:nonzero"
   id="path23" />
            </g>
            <g
   transform="matrix(144,0,0,144,835.184,391.055)"
   id="g25">
                <path
   d="M 0.004,-0.037 C 0.004,-0.017 0.01,0 0.042,0 h 0.177 c 0.024,0 0.039,-0.008 0.039,-0.038 0,-0.036 -0.026,-0.037 -0.039,-0.037 H 0.173 v -0.156 c 0,-0.111 0.073,-0.142 0.116,-0.142 0.058,0 0.063,0.036 0.063,0.086 v 0.212 H 0.324 c -0.041,0 -0.04,0.025 -0.04,0.04 C 0.284,-0.001 0.312,0 0.323,0 h 0.16 C 0.495,0 0.52,-0.001 0.52,-0.038 0.52,-0.073 0.495,-0.075 0.482,-0.075 H 0.435 v -0.213 c 0,-0.064 -0.007,-0.16 -0.13,-0.16 -0.053,0 -0.096,0.021 -0.132,0.056 v -0.016 c 0,-0.033 -0.024,-0.036 -0.038,-0.036 H 0.04 c -0.029,0 -0.036,0.019 -0.036,0.035 0,0.038 0.022,0.04 0.04,0.04 h 0.045 v 0.294 H 0.043 c -0.015,0 -0.039,0.002 -0.039,0.038 z"
   style="fill:#006668;fill-rule:nonzero"
   id="path24" />
            </g>
            <g
   transform="matrix(144,0,0,144,910.784,391.055)"
   id="g26">
                <path
   d="m 0.029,0.079 c 0,0.059 0.048,0.148 0.234,0.148 0.182,0 0.232,-0.088 0.232,-0.147 0,-0.043 -0.017,-0.083 -0.051,-0.108 C 0.404,-0.057 0.35,-0.067 0.273,-0.067 H 0.185 c -0.043,0 -0.051,-0.031 -0.051,-0.049 0,-0.007 0.001,-0.015 0.004,-0.025 0.026,0.014 0.056,0.023 0.095,0.023 0.102,0 0.173,-0.066 0.173,-0.165 0,-0.032 -0.006,-0.056 -0.022,-0.087 L 0.408,-0.375 0.43,-0.377 c 0.004,0.007 0.015,0.024 0.038,0.024 0.022,0 0.042,-0.017 0.042,-0.042 0,-0.034 -0.031,-0.057 -0.075,-0.057 -0.039,0 -0.075,0.014 -0.098,0.032 H 0.336 C 0.302,-0.442 0.265,-0.448 0.234,-0.448 c -0.105,0 -0.174,0.067 -0.174,0.165 0,0.041 0.013,0.075 0.032,0.101 v 0.002 c -0.019,0.029 -0.021,0.055 -0.021,0.069 0,0.021 0.006,0.046 0.022,0.069 -0.04,0.025 -0.064,0.071 -0.064,0.121 z m 0.07,-0.003 c 0,-0.025 0.011,-0.073 0.088,-0.073 h 0.08 c 0.074,0 0.158,0.005 0.158,0.075 0,0.048 -0.059,0.082 -0.161,0.082 -0.135,0 -0.165,-0.051 -0.165,-0.084 z m 0.045,-0.359 c 0,-0.077 0.05,-0.098 0.089,-0.098 0.063,0 0.089,0.046 0.089,0.097 0,0.061 -0.034,0.099 -0.089,0.099 -0.063,0 -0.089,-0.047 -0.089,-0.098 z"
   style="fill:#006668;fill-rule:nonzero"
   id="path25" />
            </g>
            <g
   transform="matrix(144,0,0,144,986.384,391.055)"
   id="g27">
                <path
   d="m 0.049,-0.305 c 0,0.062 0.058,0.022 0.135,0.053 0.038,0.016 0.036,0.036 0.036,0.055 v 0.154 c 0,0.009 -0.001,0.018 0.001,0.027 0.016,0.095 0.154,0.099 0.198,0.099 H 0.44 C 0.475,0.082 0.474,0.057 0.474,0.045 0.474,0.035 0.476,0.008 0.438,0.008 H 0.423 C 0.307,0.005 0.304,-0.015 0.304,-0.04 v -0.161 c 0,-0.05 -0.021,-0.083 -0.061,-0.104 V -0.306 C 0.27,-0.321 0.306,-0.348 0.304,-0.409 v -0.157 c 0,-0.028 -0.001,-0.051 0.121,-0.053 h 0.014 c 0.031,0 0.036,-0.017 0.035,-0.041 C 0.475,-0.68 0.466,-0.694 0.438,-0.694 H 0.43 c -0.08,0 -0.21,0.007 -0.21,0.125 v 0.153 c 0,0.01 0,0.021 -0.004,0.03 -0.023,0.05 -0.137,0.038 -0.151,0.046 -0.016,0.009 -0.016,0.024 -0.016,0.035 z"
   style="fill:#006668;fill-rule:nonzero"
   id="path26" />
            </g>
        </g>
    </g>
</svg>
